<mxfile host="app.diagrams.net" modified="2023-12-07T19:47:31.953Z" agent="Mozilla/5.0 (Windows NT 10.0; Win64; x64) AppleWebKit/537.36 (KHTML, like Gecko) Chrome/119.0.0.0 Safari/537.36" etag="oXGht1khP1SnxxPkw74b" version="22.1.7" type="github">
  <diagram name="第 1 页" id="sk0X1smZIDE7Iv9nIsd9">
    <mxGraphModel dx="1340" dy="830" grid="1" gridSize="10" guides="1" tooltips="1" connect="1" arrows="1" fold="1" page="1" pageScale="1" pageWidth="827" pageHeight="1169" math="0" shadow="0">
      <root>
        <mxCell id="0" />
        <mxCell id="1" parent="0" />
        <mxCell id="jgX178toky1a8mPkLuIB-1" value="Develop branch" style="rounded=0;whiteSpace=wrap;html=1;" vertex="1" parent="1">
          <mxGeometry x="294" y="170" width="120" height="60" as="geometry" />
        </mxCell>
        <mxCell id="jgX178toky1a8mPkLuIB-2" style="edgeStyle=orthogonalEdgeStyle;rounded=0;orthogonalLoop=1;jettySize=auto;html=1;entryX=0.5;entryY=0;entryDx=0;entryDy=0;" edge="1" parent="1" source="jgX178toky1a8mPkLuIB-3" target="jgX178toky1a8mPkLuIB-1">
          <mxGeometry relative="1" as="geometry" />
        </mxCell>
        <mxCell id="jgX178toky1a8mPkLuIB-3" value="CJ" style="whiteSpace=wrap;html=1;aspect=fixed;" vertex="1" parent="1">
          <mxGeometry x="190" y="40" width="80" height="80" as="geometry" />
        </mxCell>
        <mxCell id="jgX178toky1a8mPkLuIB-4" style="edgeStyle=orthogonalEdgeStyle;rounded=0;orthogonalLoop=1;jettySize=auto;html=1;entryX=0.5;entryY=0;entryDx=0;entryDy=0;" edge="1" parent="1" source="jgX178toky1a8mPkLuIB-5" target="jgX178toky1a8mPkLuIB-1">
          <mxGeometry relative="1" as="geometry" />
        </mxCell>
        <mxCell id="jgX178toky1a8mPkLuIB-5" value="Steven" style="whiteSpace=wrap;html=1;aspect=fixed;" vertex="1" parent="1">
          <mxGeometry x="450" y="40" width="80" height="80" as="geometry" />
        </mxCell>
        <mxCell id="jgX178toky1a8mPkLuIB-6" value="Unit Tests" style="rounded=0;whiteSpace=wrap;html=1;" vertex="1" parent="1">
          <mxGeometry x="294" y="290" width="120" height="60" as="geometry" />
        </mxCell>
        <mxCell id="jgX178toky1a8mPkLuIB-7" value="Version:2.1.343.b69e8f90" style="rounded=0;whiteSpace=wrap;html=1;" vertex="1" parent="1">
          <mxGeometry x="266" y="400" width="176" height="60" as="geometry" />
        </mxCell>
      </root>
    </mxGraphModel>
  </diagram>
</mxfile>
